# Blender v2.90.0 OBJ File: 'Ammobox.blend'
# www.blender.org
mtllib Ammobox.mtl
o Cube
v 0.022955 0.017092 -0.055690
v 0.022955 -0.017092 -0.055690
v 0.023229 0.017366 0.055690
v 0.023229 -0.017366 0.055690
v -0.022955 0.017092 -0.055690
v -0.022955 -0.017092 -0.055690
v -0.023229 0.017366 0.055690
v -0.023229 -0.017366 0.055690
v 0.025187 0.019324 -0.055690
v 0.025187 -0.019324 -0.055690
v -0.025187 -0.019324 -0.055690
v -0.025187 0.019324 -0.055690
v 0.022955 0.017092 -0.074289
v 0.022955 -0.017092 -0.074289
v -0.022955 -0.017092 -0.074289
v -0.022955 0.017092 -0.074289
v 0.025187 -0.019324 0.055690
v 0.025187 0.019324 0.055690
v -0.025187 0.019324 0.055690
v -0.025187 -0.019324 0.055690
v 0.023229 -0.017366 0.042076
v 0.023229 0.017366 0.042076
v -0.023229 0.017366 0.042076
v -0.023229 -0.017366 0.042076
v 0.024373 -0.017590 -0.092743
v -0.024100 -0.008856 -0.092266
v 0.024373 -0.008856 -0.092266
v -0.024100 -0.017590 -0.092743
vt 0.990260 0.401549
vt 0.424683 0.404283
vt 0.424683 0.208031
vt 0.990260 0.208031
vt 0.908977 0.555649
vt 0.981027 0.555649
vt 0.981027 0.739473
vt 0.908977 0.739473
vt 0.990078 0.202403
vt 0.424500 0.202403
vt 0.424500 0.006151
vt 0.990078 0.006151
vt 0.255956 0.494286
vt 0.255956 0.412904
vt 0.456835 0.412904
vt 0.456835 0.494286
vt 0.246190 0.990258
vt 0.246190 0.502911
vt 0.466601 0.502911
vt 0.466602 0.990258
vt 0.013234 0.990131
vt 0.013234 0.500635
vt 0.234618 0.500635
vt 0.234618 0.990131
vt 0.270817 0.207184
vt 0.282611 0.218978
vt 0.282611 0.014768
vt 0.270817 0.026562
vt 0.028240 0.026562
vt 0.016446 0.014768
vt 0.016446 0.218978
vt 0.028240 0.207184
vt 0.799877 0.987423
vt 0.577659 0.987423
vt 0.577659 0.821960
vt 0.799877 0.821960
vt 0.800122 0.821990
vt 0.890149 0.821990
vt 0.890149 0.987452
vt 0.800122 0.987452
vt 0.577816 0.730124
vt 0.577816 0.820151
vt 0.800034 0.820151
vt 0.800034 0.730124
vt 0.487429 0.987168
vt 0.577457 0.987168
vt 0.577457 0.821705
vt 0.487429 0.821705
vt 0.272266 0.025113
vt 0.282611 0.014768
vt 0.282611 0.218978
vt 0.272266 0.208633
vt 0.016446 0.218978
vt 0.026790 0.208633
vt 0.026790 0.025113
vt 0.016446 0.014768
vt 0.799955 0.720045
vt 0.576136 0.720045
vt 0.576136 0.552715
vt 0.799955 0.552715
vt 0.909532 0.985342
vt 0.981581 0.985342
vt 0.981581 0.739460
vt 0.909532 0.739460
vt 0.909532 0.739460
vt 0.981581 0.739460
vt 0.981581 0.985342
vt 0.909532 0.985342
vt 0.908977 0.739473
vt 0.981027 0.739473
vt 0.981027 0.555649
vt 0.908977 0.555649
vt 0.018008 0.337791
vt 0.231042 0.337791
vt 0.018008 0.281686
vt 0.231042 0.281686
vn 1.0000 0.0000 0.0000
vn -1.0000 0.0000 0.0000
vn 0.0000 1.0000 0.0000
vn 0.0000 -1.0000 0.0000
vn -0.0000 0.0000 -1.0000
vn -0.0000 0.0000 1.0000
vn 0.0000 -0.9989 -0.0467
vn 0.0000 0.0546 -0.9985
usemtl Material.001
s off
f 9/1/1 18/2/1 17/3/1 10/4/1
f 8/5/1 24/6/1 23/7/1 7/8/1
f 19/9/2 12/10/2 11/11/2 20/12/2
f 1/13/3 13/14/3 16/15/3 5/16/3
f 18/17/3 9/18/3 12/19/3 19/20/3
f 20/21/4 11/22/4 10/23/4 17/24/4
f 1/25/5 9/26/5 10/27/5 2/28/5
f 6/29/5 11/30/5 12/31/5 5/32/5
f 5/32/5 12/31/5 9/26/5 1/25/5
f 2/28/5 10/27/5 11/30/5 6/29/5
f 16/33/5 13/34/5 14/35/5 15/36/5
f 2/37/1 14/38/1 13/39/1 1/40/1
f 6/41/4 15/42/4 14/43/4 2/44/4
f 5/45/2 16/46/2 15/47/2 6/48/2
f 4/49/6 17/50/6 18/51/6 3/52/6
f 3/52/6 18/51/6 19/53/6 7/54/6
f 8/55/6 20/56/6 17/50/6 4/49/6
f 7/54/6 19/53/6 20/56/6 8/55/6
f 22/57/6 23/58/6 24/59/6 21/60/6
f 7/61/4 23/62/4 22/63/4 3/64/4
f 4/65/3 21/66/3 24/67/3 8/68/3
f 3/69/2 22/70/2 21/71/2 4/72/2
f 28/73/7 25/74/7 10/23/7 11/22/7
f 28/73/8 26/75/8 27/76/8 25/74/8
