# Blender v2.90.0 OBJ File: 'Bullet.blend'
# www.blender.org
mtllib Bullet.mtl
o Cylinder
v -0.000000 -0.010055 -0.004983
v -0.000000 0.008024 -0.004983
v 0.003523 -0.010055 -0.003524
v 0.003523 0.008024 -0.003524
v 0.004983 -0.010055 0.000000
v 0.004983 0.008024 0.000000
v 0.003523 -0.010055 0.003524
v 0.003523 0.008024 0.003524
v -0.000000 -0.010055 0.004983
v -0.000000 0.008024 0.004983
v -0.003524 -0.010055 0.003524
v -0.003524 0.008024 0.003524
v -0.004983 -0.010055 -0.000000
v -0.004983 0.008024 -0.000000
v -0.003524 -0.010055 -0.003524
v -0.003524 0.008024 -0.003524
v 0.002068 0.013509 -0.002068
v -0.000000 0.013509 -0.002925
v 0.002925 0.013509 0.000000
v 0.002068 0.013509 0.002068
v -0.000000 0.013509 0.002925
v -0.002068 0.013509 0.002068
v -0.002925 0.013509 -0.000000
v -0.002068 0.013509 -0.002068
v -0.000000 0.015432 -0.000000
vt 1.000000 0.500000
vt 1.000000 1.000000
vt 0.875000 1.000000
vt 0.875000 0.500000
vt 0.750000 1.000000
vt 0.750000 0.500000
vt 0.625000 1.000000
vt 0.625000 0.500000
vt 0.500000 1.000000
vt 0.500000 0.500000
vt 0.375000 1.000000
vt 0.375000 0.500000
vt 0.250000 1.000000
vt 0.250000 0.500000
vt 0.083758 0.082376
vt 0.250887 0.013149
vt 0.250887 0.110778
vt 0.152792 0.151410
vt 0.125000 1.000000
vt 0.125000 0.500000
vt 0.000000 1.000000
vt 0.000000 0.500000
vt 0.750000 0.490000
vt 0.919706 0.419706
vt 0.990000 0.250000
vt 0.919706 0.080294
vt 0.750000 0.010000
vt 0.580294 0.080294
vt 0.510000 0.250000
vt 0.580294 0.419706
vt 0.152792 0.347600
vt 0.112160 0.249505
vt 0.250887 0.249505
vt 0.418015 0.082376
vt 0.487243 0.249505
vt 0.389614 0.249505
vt 0.348982 0.151410
vt 0.418015 0.416634
vt 0.250887 0.485861
vt 0.250887 0.388233
vt 0.348982 0.347600
vt 0.083758 0.416634
vt 0.014531 0.249505
vn 0.3827 0.0000 -0.9239
vn 0.9239 0.0000 -0.3827
vn 0.9239 0.0000 0.3827
vn 0.3827 0.0000 0.9239
vn -0.3827 0.0000 0.9239
vn -0.9239 0.0000 0.3827
vn -0.3616 0.3276 0.8729
vn -0.9239 0.0000 -0.3827
vn -0.3827 0.0000 -0.9239
vn 0.0000 -1.0000 0.0000
vn -0.5358 0.8147 -0.2219
vn 0.8729 0.3276 0.3616
vn 0.3616 0.3276 -0.8729
vn -0.3616 0.3276 -0.8729
vn -0.8729 0.3276 0.3616
vn 0.3616 0.3276 0.8729
vn 0.8729 0.3276 -0.3616
vn -0.8729 0.3276 -0.3616
vn -0.2219 0.8147 0.5358
vn 0.5358 0.8147 0.2219
vn 0.2219 0.8147 -0.5358
vn -0.2219 0.8147 -0.5358
vn -0.5358 0.8147 0.2219
vn 0.2219 0.8147 0.5358
vn 0.5358 0.8147 -0.2219
usemtl Material
s off
f 1/1/1 2/2/1 4/3/1 3/4/1
f 3/4/2 4/3/2 6/5/2 5/6/2
f 5/6/3 6/5/3 8/7/3 7/8/3
f 7/8/4 8/7/4 10/9/4 9/10/4
f 9/10/5 10/9/5 12/11/5 11/12/5
f 11/12/6 12/11/6 14/13/6 13/14/6
f 12/15/7 10/16/7 21/17/7 22/18/7
f 13/14/8 14/13/8 16/19/8 15/20/8
f 15/20/9 16/19/9 2/21/9 1/22/9
f 1/23/10 3/24/10 5/25/10 7/26/10 9/27/10 11/28/10 13/29/10 15/30/10
f 24/31/11 23/32/11 25/33/11
f 8/34/12 6/35/12 19/36/12 20/37/12
f 4/38/13 2/39/13 18/40/13 17/41/13
f 2/39/14 16/42/14 24/31/14 18/40/14
f 14/43/15 12/15/15 22/18/15 23/32/15
f 10/16/16 8/34/16 20/37/16 21/17/16
f 6/35/17 4/38/17 17/41/17 19/36/17
f 16/42/18 14/43/18 23/32/18 24/31/18
f 22/18/19 21/17/19 25/33/19
f 20/37/20 19/36/20 25/33/20
f 17/41/21 18/40/21 25/33/21
f 18/40/22 24/31/22 25/33/22
f 23/32/23 22/18/23 25/33/23
f 21/17/24 20/37/24 25/33/24
f 19/36/25 17/41/25 25/33/25
