# Blender v2.90.0 OBJ File: 'Stanag_Mag.blend'
# www.blender.org
mtllib Stanag_Mag.mtl
o Cube_Cube.001
v 0.012071 -0.102205 -0.003585
v 0.012071 0.078145 -0.025956
v 0.012071 -0.083846 0.048489
v 0.012071 0.078145 0.029260
v -0.012071 -0.102205 -0.003585
v -0.012071 0.078145 -0.025956
v -0.012071 -0.083846 0.048489
v -0.012071 0.078145 0.029260
v 0.012071 -0.063723 -0.016706
v 0.012071 0.009336 -0.025956
v 0.012071 0.009336 0.029260
v 0.012071 -0.046216 0.035514
v -0.012071 0.009336 0.029260
v -0.012071 -0.046216 0.035514
v -0.012071 0.009336 -0.025956
v -0.012071 -0.063723 -0.016706
v 0.012071 -0.025319 -0.023982
v 0.012071 -0.017016 0.030035
v -0.012071 -0.017016 0.030035
v -0.012071 -0.025319 -0.023982
vt 0.968275 0.617775
vt 0.968275 0.968722
vt 0.686657 0.968722
vt 0.686657 0.617775
vt 0.183168 0.571749
vt 0.183168 0.983880
vt 0.051724 0.983880
vt 0.051724 0.571749
vt 0.686657 0.617775
vt 0.686657 0.968722
vt 0.968275 0.968722
vt 0.968275 0.617775
vt 0.182312 0.612769
vt 0.182312 0.982238
vt 0.052679 0.982238
vt 0.052679 0.612769
vt 0.412515 0.373477
vt 0.269700 0.374414
vt 0.267549 0.047801
vt 0.410365 0.046864
vt 0.320797 0.502634
vt 0.518420 0.502634
vt 0.518420 0.954611
vt 0.320796 0.954611
vt 0.182312 0.013849
vt 0.182312 0.220477
vt 0.052679 0.220477
vt 0.052679 0.013849
vt 0.182312 0.426690
vt 0.052679 0.426690
vt 0.686233 0.086144
vt 0.686322 0.289158
vt 0.968451 0.291441
vt 0.969074 0.084076
vt 0.686397 0.468605
vt 0.968050 0.441024
vt 0.183168 0.013634
vt 0.183168 0.239018
vt 0.051724 0.239018
vt 0.051725 0.013634
vt 0.183168 0.413911
vt 0.051724 0.413911
vt 0.969074 0.084076
vt 0.968451 0.291441
vt 0.686322 0.289158
vt 0.686233 0.086144
vt 0.968050 0.441024
vt 0.686397 0.468605
vn 1.0000 0.0000 -0.0000
vn 0.0000 0.0147 0.9999
vn 0.0000 0.0000 1.0000
vn -1.0000 -0.0000 0.0000
vn 0.0000 -0.0284 -0.9996
vn 0.0000 0.0000 -1.0000
vn 0.0000 -0.9431 0.3325
vn 0.0000 1.0000 0.0000
vn -0.0000 -0.3227 -0.9465
vn -0.0000 -0.2551 -0.9669
vn 0.0000 -0.1218 -0.9926
vn 0.0000 0.3260 0.9454
vn 0.0000 0.2559 0.9667
vn 0.0000 0.1072 0.9942
usemtl Material.001
s 1
f 10/1/1 2/2/1 4/3/1 11/4/1
f 11/5/2 4/6/3 8/7/3 13/8/2
f 13/9/4 8/10/4 6/11/4 15/12/4
f 15/13/5 6/14/6 2/15/6 10/16/5
f 3/17/7 7/18/7 5/19/7 1/20/7
f 8/21/8 4/22/8 2/23/8 6/24/8
f 5/25/9 16/26/10 9/27/10 1/28/9
f 20/29/11 15/13/5 10/16/5 17/30/11
f 7/31/4 14/32/4 16/33/4 5/34/4
f 19/35/4 13/9/4 15/12/4 20/36/4
f 3/37/12 12/38/13 14/39/13 7/40/12
f 18/41/14 11/5/2 13/8/2 19/42/14
f 1/43/1 9/44/1 12/45/1 3/46/1
f 17/47/1 10/1/1 11/4/1 18/48/1
f 9/44/1 17/47/1 18/48/1 12/45/1
f 12/38/13 18/41/14 19/42/14 14/39/13
f 14/32/4 19/35/4 20/36/4 16/33/4
f 16/26/10 20/29/11 17/30/11 9/27/10
o Cylinder
v 0.000000 -0.010055 -0.004983
v 0.000000 0.008024 -0.004983
v 0.003523 0.008024 -0.003524
v 0.003523 -0.010055 -0.003524
v 0.004983 0.008024 0.000000
v 0.004983 -0.010055 -0.000000
v 0.003523 0.008024 0.003524
v 0.003523 -0.010055 0.003524
v 0.000000 0.008024 0.004983
v 0.000000 -0.010055 0.004983
v -0.003524 0.008024 0.003524
v -0.003524 -0.010055 0.003524
v -0.004983 0.008024 0.000000
v -0.004983 -0.010055 -0.000000
v 0.000000 0.013509 0.002925
v -0.002068 0.013509 0.002068
v -0.003524 0.008024 -0.003524
v -0.003524 -0.010055 -0.003524
v -0.002068 0.013509 -0.002068
v -0.002925 0.013509 0.000000
v 0.000000 0.015432 0.000000
v 0.002925 0.013509 0.000000
v 0.002068 0.013509 0.002068
v 0.000000 0.013509 -0.002925
v 0.002068 0.013509 -0.002068
vt 1.000000 0.500000
vt 1.000000 1.000000
vt 0.875000 1.000000
vt 0.875000 0.500000
vt 0.750000 1.000000
vt 0.750000 0.500000
vt 0.625000 1.000000
vt 0.625000 0.500000
vt 0.500000 1.000000
vt 0.500000 0.500000
vt 0.375000 1.000000
vt 0.375000 0.500000
vt 0.250000 1.000000
vt 0.250000 0.500000
vt 0.083758 0.082376
vt 0.250887 0.013149
vt 0.250887 0.110778
vt 0.152792 0.151410
vt 0.125000 1.000000
vt 0.125000 0.500000
vt 0.000000 1.000000
vt 0.000000 0.500000
vt 0.750000 0.490000
vt 0.919706 0.419706
vt 0.990000 0.250000
vt 0.919706 0.080294
vt 0.750000 0.010000
vt 0.580294 0.080294
vt 0.510000 0.250000
vt 0.580294 0.419706
vt 0.152792 0.347600
vt 0.112160 0.249505
vt 0.250887 0.249505
vt 0.418015 0.082376
vt 0.487243 0.249505
vt 0.389614 0.249505
vt 0.348982 0.151410
vt 0.418015 0.416634
vt 0.250887 0.485861
vt 0.250887 0.388233
vt 0.348982 0.347600
vt 0.083758 0.416634
vt 0.014531 0.249505
vn 0.3826 0.0000 -0.9239
vn 0.9239 0.0000 -0.3828
vn 0.9239 -0.0000 0.3828
vn 0.3826 -0.0000 0.9239
vn -0.3825 -0.0000 0.9239
vn -0.9239 -0.0000 0.3825
vn -0.3615 0.3276 0.8729
vn -0.9239 0.0000 -0.3825
vn -0.3825 0.0000 -0.9239
vn 0.0000 -1.0000 0.0000
vn -0.5356 0.8147 -0.2220
vn 0.8729 0.3275 0.3617
vn 0.3616 0.3276 -0.8729
vn -0.3615 0.3276 -0.8729
vn -0.8729 0.3276 0.3615
vn 0.3616 0.3276 0.8729
vn 0.8729 0.3275 -0.3617
vn -0.8729 0.3276 -0.3615
vn -0.2220 0.8147 0.5356
vn 0.5356 0.8147 0.2220
vn 0.2220 0.8147 -0.5356
vn -0.2220 0.8147 -0.5356
vn -0.5356 0.8147 0.2220
vn 0.2220 0.8147 0.5356
vn 0.5356 0.8147 -0.2220
usemtl Material.002
s 1
f 21/49/15 22/50/15 23/51/15 24/52/15
f 24/52/16 23/51/16 25/53/16 26/54/16
f 26/54/17 25/53/17 27/55/17 28/56/17
f 28/56/18 27/55/18 29/57/18 30/58/18
f 30/58/19 29/57/19 31/59/19 32/60/19
f 32/60/20 31/59/20 33/61/20 34/62/20
f 31/63/21 29/64/21 35/65/21 36/66/21
f 34/62/22 33/61/22 37/67/22 38/68/22
f 38/68/23 37/67/23 22/69/23 21/70/23
f 21/71/24 24/72/24 26/73/24 28/74/24 30/75/24 32/76/24 34/77/24 38/78/24
f 39/79/25 40/80/25 41/81/25
f 27/82/26 25/83/26 42/84/26 43/85/26
f 23/86/27 22/87/27 44/88/27 45/89/27
f 22/87/28 37/90/28 39/79/28 44/88/28
f 33/91/29 31/63/29 36/66/29 40/80/29
f 29/64/30 27/82/30 43/85/30 35/65/30
f 25/83/31 23/86/31 45/89/31 42/84/31
f 37/90/32 33/91/32 40/80/32 39/79/32
f 36/66/33 35/65/33 41/81/33
f 43/85/34 42/84/34 41/81/34
f 45/89/35 44/88/35 41/81/35
f 44/88/36 39/79/36 41/81/36
f 40/80/37 36/66/37 41/81/37
f 35/65/38 43/85/38 41/81/38
f 42/84/39 45/89/39 41/81/39
