# Blender v2.90.0 OBJ File: 'Bullet.blend'
# www.blender.org
mtllib Bullet.mtl
o Cylinder.007_Cylinder.010
v -0.009623 0.000120 0.021502
v -0.007692 0.001580 0.024449
v -0.006892 0.005103 0.025670
v -0.007692 0.008627 0.024449
v -0.009623 0.010087 0.021502
v -0.011555 0.008627 0.018556
v -0.012355 0.005103 0.017335
v -0.011555 0.001580 0.018556
v 0.037533 0.002331 -0.006092
v 0.037533 0.007876 -0.006092
v 0.036013 0.009024 -0.008410
v 0.034493 0.007876 -0.010729
v 0.033864 0.005103 -0.011689
v 0.034493 0.002331 -0.010729
v 0.038162 0.005103 -0.005132
v 0.036013 0.001183 -0.008410
v -0.006109 0.001580 0.023412
v -0.006109 0.008627 0.023412
v -0.008040 0.010087 0.020465
v -0.009972 0.008627 0.017518
v -0.010772 0.005103 0.016297
v -0.009972 0.001580 0.017518
v -0.005309 0.005103 0.024632
v -0.008040 0.000120 0.020465
v 0.030530 0.001183 -0.004816
v 0.032049 0.002331 -0.002498
v 0.032049 0.007876 -0.002498
v 0.030530 0.009024 -0.004816
v 0.029010 0.007876 -0.007135
v 0.028381 0.005103 -0.008095
v 0.029010 0.002331 -0.007135
v 0.032679 0.005103 -0.001537
v 0.028058 0.001580 0.001017
v 0.028058 0.008627 0.001017
v 0.026127 0.010087 -0.001930
v 0.024195 0.008627 -0.004877
v 0.023395 0.005103 -0.006098
v 0.024195 0.001580 -0.004877
v 0.028858 0.005103 0.002237
v 0.026127 0.000120 -0.001930
v 0.037303 0.002751 -0.006443
v 0.037303 0.007456 -0.006443
v 0.036013 0.008430 -0.008410
v 0.034723 0.007456 -0.010378
v 0.034189 0.005103 -0.011193
v 0.034723 0.002751 -0.010378
v 0.037837 0.005103 -0.005628
v 0.036013 0.001777 -0.008410
v 0.009086 0.002751 0.012052
v 0.009086 0.007456 0.012052
v 0.007796 0.008430 0.010085
v 0.006506 0.007456 0.008117
v 0.005972 0.005103 0.007302
v 0.006506 0.002751 0.008117
v 0.009620 0.005103 0.012867
v 0.007796 0.001777 0.010085
v 0.000214 0.000200 -0.004983
v 0.003737 0.000200 -0.003524
v 0.005197 0.000200 0.000000
v 0.003737 0.000200 0.003524
v 0.000214 0.000200 0.004983
v -0.003310 0.000200 0.003524
v -0.004770 0.000200 0.000000
v -0.003310 0.000200 -0.003524
v 0.002986 0.054766 -0.002772
v 0.002986 0.054766 0.002772
v 0.000214 0.054766 0.003920
v -0.002559 0.054766 0.002772
v -0.003707 0.054766 0.000000
v -0.002559 0.054766 -0.002772
v 0.004134 0.054766 0.000000
v 0.000214 0.054766 -0.003920
v 0.003737 0.002093 -0.003524
v 0.003737 0.002093 0.003524
v 0.000214 0.002093 0.004983
v -0.003310 0.002093 0.003524
v -0.004770 0.002093 0.000000
v -0.003310 0.002093 -0.003524
v 0.005197 0.002093 0.000000
v 0.000214 0.002093 -0.004983
v 0.000214 0.048210 -0.003920
v 0.002986 0.048210 -0.002772
v 0.002986 0.048210 0.002772
v 0.000214 0.048210 0.003920
v -0.002559 0.048210 0.002772
v -0.003707 0.048210 0.000000
v -0.002559 0.048210 -0.002772
v 0.004134 0.048210 0.000000
v 0.003737 0.042945 -0.003524
v 0.003737 0.042945 0.003524
v 0.000214 0.042945 0.004983
v -0.003310 0.042945 0.003524
v -0.004770 0.042945 0.000000
v -0.003310 0.042945 -0.003524
v 0.005197 0.042945 0.000000
v 0.000214 0.042945 -0.004983
v 0.002566 0.054766 -0.002353
v 0.002566 0.054766 0.002353
v 0.000214 0.054766 0.003327
v -0.002139 0.054766 0.002353
v -0.003113 0.054766 0.000000
v -0.002139 0.054766 -0.002353
v 0.003540 0.054766 0.000000
v 0.000214 0.054766 -0.003327
v 0.002566 0.021028 -0.002353
v 0.002566 0.021028 0.002353
v 0.000214 0.021028 0.003327
v -0.002139 0.021028 0.002353
v -0.003113 0.021028 0.000000
v -0.002139 0.021028 -0.002353
v 0.003540 0.021028 0.000000
v 0.000214 0.021028 -0.003327
v -0.013881 0.000120 -0.021104
v -0.017184 0.001580 -0.022333
v -0.018552 0.005103 -0.022842
v -0.017184 0.008627 -0.022333
v -0.013881 0.010087 -0.021104
v -0.010579 0.008627 -0.019876
v -0.009211 0.005103 -0.019367
v -0.010579 0.001580 -0.019876
v -0.035508 0.002331 0.029070
v -0.035508 0.007876 0.029070
v -0.032910 0.009024 0.030036
v -0.030312 0.007876 0.031003
v -0.029235 0.005103 0.031404
v -0.030312 0.002331 0.031003
v -0.036584 0.005103 0.028669
v -0.032910 0.001183 0.030036
v -0.017844 0.001580 -0.020559
v -0.017844 0.008627 -0.020559
v -0.014541 0.010087 -0.019330
v -0.011239 0.008627 -0.018102
v -0.009871 0.005103 -0.017593
v -0.011239 0.001580 -0.018102
v -0.019212 0.005103 -0.021068
v -0.014541 0.000120 -0.019330
v -0.030623 0.001183 0.023892
v -0.033221 0.002331 0.022925
v -0.033221 0.007876 0.022925
v -0.030623 0.009024 0.023892
v -0.028025 0.007876 0.024858
v -0.026949 0.005103 0.025259
v -0.028025 0.002331 0.024858
v -0.034298 0.005103 0.022525
v -0.032090 0.001580 0.017729
v -0.032090 0.008627 0.017729
v -0.028787 0.010087 0.018958
v -0.025485 0.008627 0.020186
v -0.024117 0.005103 0.020695
v -0.025485 0.001580 0.020186
v -0.033458 0.005103 0.017220
v -0.028787 0.000120 0.018958
v -0.035114 0.002751 0.029216
v -0.035114 0.007456 0.029216
v -0.032910 0.008430 0.030036
v -0.030705 0.007456 0.030857
v -0.029792 0.005103 0.031197
v -0.030705 0.002751 0.030857
v -0.036028 0.005103 0.028876
v -0.032910 0.001777 0.030036
v -0.023349 0.002751 -0.002404
v -0.023349 0.007456 -0.002404
v -0.021144 0.008430 -0.001584
v -0.018940 0.007456 -0.000764
v -0.018026 0.005103 -0.000424
v -0.018940 0.002751 -0.000764
v -0.024263 0.005103 -0.002744
v -0.021144 0.001777 -0.001584
vt 0.750000 0.490000
vt 0.919706 0.419706
vt 0.990000 0.250000
vt 0.919706 0.080294
vt 0.750000 0.010000
vt 0.580294 0.080294
vt 0.510000 0.250000
vt 0.580294 0.419706
vt 0.125000 0.812041
vt 0.125000 0.917338
vt 0.000000 0.917338
vt 0.000000 0.812041
vt 0.250000 0.812041
vt 0.250000 0.917338
vt 0.375000 0.812041
vt 0.375000 0.917338
vt 0.500000 0.812041
vt 0.500000 0.917338
vt 0.625000 0.812041
vt 0.625000 0.917338
vt 0.750000 0.812041
vt 0.750000 0.917338
vt 0.875000 0.812041
vt 0.875000 0.917338
vt 1.000000 0.812041
vt 1.000000 0.917338
vt 1.000000 0.500000
vt 1.000000 0.552347
vt 0.875000 0.552347
vt 0.875000 0.500000
vt 0.750000 0.552347
vt 0.750000 0.500000
vt 0.625000 0.552347
vt 0.625000 0.500000
vt 0.500000 0.552347
vt 0.500000 0.500000
vt 0.375000 0.552347
vt 0.375000 0.500000
vt 0.250000 0.552347
vt 0.250000 0.500000
vt 0.125000 0.552347
vt 0.125000 0.500000
vt 0.000000 0.552347
vt 0.000000 0.500000
vt -0.250512 0.921668
vt -0.250512 0.831099
vt -0.125512 0.831099
vt -0.125512 0.921667
vt -0.000512 0.831099
vt -0.000512 0.921667
vt 0.124488 0.831099
vt 0.124488 0.921667
vt 0.249488 0.831099
vt 0.249488 0.921667
vt 0.374488 0.831099
vt 0.374488 0.921667
vt 0.499488 0.831099
vt 0.499488 0.921667
vt 0.624488 0.831099
vt 0.624488 0.921667
vt 0.749488 0.831099
vt 0.749488 0.921667
vt 0.125000 0.916201
vt 0.000000 0.916201
vt 0.250000 0.916201
vt 0.375000 0.916201
vt 0.500000 0.916201
vt 0.625000 0.916201
vt 0.750000 0.916201
vt 0.875000 0.916201
vt 1.000000 0.916201
vt 0.889279 0.251171
vt 0.848505 0.349606
vt 0.833606 0.334707
vt 0.868208 0.251171
vt 0.750070 0.111962
vt 0.848505 0.152735
vt 0.833606 0.167634
vt 0.750070 0.133033
vt 0.610862 0.251171
vt 0.651635 0.152735
vt 0.666534 0.167634
vt 0.631932 0.251171
vt 0.750070 0.390379
vt 0.651635 0.349606
vt 0.666534 0.334707
vt 0.750070 0.369309
vt 0.750070 0.336640
vt 0.810506 0.311606
vt 0.835539 0.251171
vt 0.810506 0.190735
vt 0.750070 0.165702
vt 0.689634 0.190735
vt 0.664601 0.251171
vt 0.689634 0.311606
vt 0.750000 0.490000
vt 0.919706 0.419706
vt 0.990000 0.250000
vt 0.919706 0.080294
vt 0.750000 0.010000
vt 0.580294 0.080294
vt 0.510000 0.250000
vt 0.580294 0.419706
vt 0.125000 0.812041
vt 0.125000 0.917338
vt 0.000000 0.917338
vt 0.000000 0.812041
vt 0.250000 0.812041
vt 0.250000 0.917338
vt 0.375000 0.812041
vt 0.375000 0.917338
vt 0.500000 0.812041
vt 0.500000 0.917338
vt 0.625000 0.812041
vt 0.625000 0.917338
vt 0.750000 0.812041
vt 0.750000 0.917338
vt 0.875000 0.812041
vt 0.875000 0.917338
vt 1.000000 0.812041
vt 1.000000 0.917338
vt 1.000000 0.500000
vt 1.000000 0.552347
vt 0.875000 0.552347
vt 0.875000 0.500000
vt 0.750000 0.552347
vt 0.750000 0.500000
vt 0.625000 0.552347
vt 0.625000 0.500000
vt 0.500000 0.552347
vt 0.500000 0.500000
vt 0.375000 0.552347
vt 0.375000 0.500000
vt 0.250000 0.552347
vt 0.250000 0.500000
vt 0.125000 0.552347
vt 0.125000 0.500000
vt 0.000000 0.552347
vt 0.000000 0.500000
vt -0.250512 0.921668
vt -0.250512 0.831099
vt -0.125512 0.831099
vt -0.125512 0.921667
vt -0.000512 0.831099
vt -0.000512 0.921667
vt 0.124488 0.831099
vt 0.124488 0.921667
vt 0.249488 0.831099
vt 0.249488 0.921667
vt 0.374488 0.831099
vt 0.374488 0.921667
vt 0.499488 0.831099
vt 0.499488 0.921667
vt 0.624488 0.831099
vt 0.624488 0.921667
vt 0.749488 0.831099
vt 0.749488 0.921667
vt 0.125000 0.916201
vt 0.000000 0.916201
vt 0.250000 0.916201
vt 0.375000 0.916201
vt 0.500000 0.916201
vt 0.625000 0.916201
vt 0.750000 0.916201
vt 0.875000 0.916201
vt 1.000000 0.916201
vt 0.889279 0.251171
vt 0.848505 0.349606
vt 0.833606 0.334707
vt 0.868208 0.251171
vt 0.750070 0.111962
vt 0.848505 0.152735
vt 0.833606 0.167634
vt 0.750070 0.133033
vt 0.610862 0.251171
vt 0.651635 0.152735
vt 0.666534 0.167634
vt 0.631932 0.251171
vt 0.750070 0.390379
vt 0.651635 0.349606
vt 0.666534 0.334707
vt 0.750070 0.369309
vt 0.750070 0.336640
vt 0.810506 0.311606
vt 0.835539 0.251171
vt 0.810506 0.190735
vt 0.750070 0.165702
vt 0.689634 0.190735
vt 0.664601 0.251171
vt 0.689634 0.311606
vt 0.750000 0.490000
vt 0.919706 0.419706
vt 0.990000 0.250000
vt 0.919706 0.080294
vt 0.750000 0.010000
vt 0.580294 0.080294
vt 0.510000 0.250000
vt 0.580294 0.419706
vt 0.125000 0.812041
vt 0.125000 0.917338
vt 0.000000 0.917338
vt 0.000000 0.812041
vt 0.250000 0.812041
vt 0.250000 0.917338
vt 0.375000 0.812041
vt 0.375000 0.917338
vt 0.500000 0.812041
vt 0.500000 0.917338
vt 0.625000 0.812041
vt 0.625000 0.917338
vt 0.750000 0.812041
vt 0.750000 0.917338
vt 0.875000 0.812041
vt 0.875000 0.917338
vt 1.000000 0.812041
vt 1.000000 0.917338
vt 1.000000 0.500000
vt 1.000000 0.552347
vt 0.875000 0.552347
vt 0.875000 0.500000
vt 0.750000 0.552347
vt 0.750000 0.500000
vt 0.625000 0.552347
vt 0.625000 0.500000
vt 0.500000 0.552347
vt 0.500000 0.500000
vt 0.375000 0.552347
vt 0.375000 0.500000
vt 0.250000 0.552347
vt 0.250000 0.500000
vt 0.125000 0.552347
vt 0.125000 0.500000
vt 0.000000 0.552347
vt 0.000000 0.500000
vt -0.250512 0.921668
vt -0.250512 0.831099
vt -0.125512 0.831099
vt -0.125512 0.921667
vt -0.000512 0.831099
vt -0.000512 0.921667
vt 0.124488 0.831099
vt 0.124488 0.921667
vt 0.249488 0.831099
vt 0.249488 0.921667
vt 0.374488 0.831099
vt 0.374488 0.921667
vt 0.499488 0.831099
vt 0.499488 0.921667
vt 0.624488 0.831099
vt 0.624488 0.921667
vt 0.749488 0.831099
vt 0.749488 0.921667
vt 0.125000 0.916201
vt 0.000000 0.916201
vt 0.250000 0.916201
vt 0.375000 0.916201
vt 0.500000 0.916201
vt 0.625000 0.916201
vt 0.750000 0.916201
vt 0.875000 0.916201
vt 1.000000 0.916201
vt 0.889279 0.251171
vt 0.848505 0.349606
vt 0.833606 0.334707
vt 0.868208 0.251171
vt 0.750070 0.111962
vt 0.848505 0.152735
vt 0.833606 0.167634
vt 0.750070 0.133033
vt 0.610862 0.251171
vt 0.651635 0.152735
vt 0.666534 0.167634
vt 0.631932 0.251171
vt 0.750070 0.390379
vt 0.651635 0.349606
vt 0.666534 0.334707
vt 0.750070 0.369309
vt 0.750070 0.336640
vt 0.810506 0.311606
vt 0.835539 0.251171
vt 0.810506 0.190735
vt 0.750070 0.165702
vt 0.689634 0.190735
vt 0.664601 0.251171
vt 0.689634 0.311606
vn -0.8364 -0.0000 0.5482
vn -0.3004 -0.7034 -0.6442
vn -0.3876 -0.7071 -0.5914
vn 0.0000 -1.0000 0.0000
vn 0.0852 -0.9948 -0.0559
vn -0.4601 -0.0000 -0.8879
vn -0.5482 -0.0000 -0.8364
vn -0.3004 0.7034 -0.6442
vn -0.3876 0.7071 -0.5914
vn 0.0852 0.9948 -0.0559
vn 0.0000 1.0000 0.0000
vn 0.4708 0.7034 0.5324
vn 0.3876 0.7071 0.5914
vn 0.6306 0.0000 0.7761
vn 0.5482 0.0000 0.8364
vn 0.4708 -0.7034 0.5324
vn 0.3876 -0.7071 0.5914
vn 0.5482 -0.0000 0.8363
vn 0.0812 -0.9953 -0.0532
vn 0.4670 -0.7038 0.5354
vn 0.6268 -0.0000 0.7792
vn 0.4670 0.7038 0.5354
vn 0.0812 0.9953 -0.0532
vn -0.3046 0.7038 -0.6418
vn -0.4644 -0.0000 -0.8856
vn -0.3046 -0.7038 -0.6418
vn 0.8364 0.0000 -0.5482
vn 0.8363 0.0000 -0.5482
vn -0.7034 0.1019 -0.7034
vn -0.7071 0.0000 -0.7071
vn 0.0000 0.0000 -1.0000
vn 0.0000 0.1019 -0.9948
vn -0.9948 0.1019 -0.0000
vn -1.0000 0.0000 -0.0000
vn -0.7034 0.1019 0.7034
vn -0.7071 0.0000 0.7071
vn 0.0000 0.1019 0.9948
vn 0.0000 0.0000 1.0000
vn 0.7034 0.1019 0.7034
vn 0.7071 0.0000 0.7071
vn 0.9948 0.1019 0.0000
vn 1.0000 0.0000 -0.0000
vn 0.7034 0.1019 -0.7034
vn 0.7071 0.0000 -0.7071
vn 0.0000 0.0971 -0.9953
vn 0.7038 0.0971 -0.7038
vn 0.9953 0.0971 0.0000
vn 0.7038 0.0971 0.7038
vn 0.0000 0.0971 0.9953
vn -0.7038 0.0971 0.7038
vn -0.9953 0.0971 -0.0000
vn -0.7038 0.0971 -0.7038
vn 0.3487 -0.0000 -0.9372
vn 0.6237 -0.7034 0.3408
vn 0.6627 -0.7071 0.2466
vn -0.0355 -0.9948 0.0955
vn 0.8968 0.0000 0.4424
vn 0.9372 0.0000 0.3487
vn 0.6237 0.7034 0.3408
vn 0.6627 0.7071 0.2466
vn -0.0355 0.9948 0.0955
vn -0.6948 0.7034 -0.1498
vn -0.6627 0.7071 -0.2466
vn -0.9679 0.0000 -0.2514
vn -0.9372 0.0000 -0.3487
vn -0.6948 -0.7034 -0.1498
vn -0.6627 -0.7071 -0.2466
vn -0.0339 -0.9953 0.0910
vn -0.6935 -0.7038 -0.1544
vn -0.9667 0.0000 -0.2561
vn -0.6935 0.7038 -0.1544
vn -0.0339 0.9953 0.0910
vn 0.6257 0.7038 0.3364
vn 0.8989 -0.0000 0.4381
vn 0.6257 -0.7038 0.3364
vn -0.3487 -0.0000 0.9372
usemtl Material
s 1
f 1/1/1 2/2/1 3/3/1 4/4/1 5/5/1 6/6/1 7/7/1 8/8/1
f 31/9/2 14/10/3 16/11/4 25/12/5
f 30/13/6 13/14/7 14/10/3 31/9/2
f 29/15/8 12/16/9 13/14/7 30/13/6
f 28/17/10 11/18/11 12/16/9 29/15/8
f 27/19/12 10/20/13 11/18/11 28/17/10
f 32/21/14 15/22/15 10/20/13 27/19/12
f 26/23/16 9/24/17 15/22/15 32/21/14
f 25/25/5 16/26/4 9/24/17 26/23/16
f 1/27/4 24/28/4 17/29/17 2/30/17
f 2/30/17 17/29/17 23/31/15 3/32/18
f 3/32/18 23/31/15 18/33/13 4/34/13
f 4/34/13 18/33/13 19/35/11 5/36/11
f 5/36/11 19/35/11 20/37/9 6/38/9
f 6/38/9 20/37/9 21/39/7 7/40/7
f 7/40/7 21/39/7 22/41/3 8/42/3
f 8/42/3 22/41/3 24/43/4 1/44/4
f 40/45/19 25/46/5 26/47/16 33/48/20
f 33/48/20 26/47/16 32/49/14 39/50/21
f 39/50/21 32/49/14 27/51/12 34/52/22
f 34/52/22 27/51/12 28/53/10 35/54/23
f 35/54/23 28/53/10 29/55/8 36/56/24
f 36/56/24 29/55/8 30/57/6 37/58/25
f 37/58/25 30/57/6 31/59/2 38/60/26
f 38/60/26 31/59/2 25/61/5 40/62/19
f 22/41/3 38/63/26 40/64/19 24/43/4
f 21/39/7 37/65/25 38/63/26 22/41/3
f 20/37/9 36/66/24 37/65/25 21/39/7
f 19/35/11 35/67/23 36/66/24 20/37/9
f 18/33/13 34/68/22 35/67/23 19/35/11
f 23/31/15 39/69/21 34/68/22 18/33/13
f 17/29/17 33/70/20 39/69/21 23/31/15
f 24/28/4 40/71/19 33/70/20 17/29/17
f 15/72/27 9/73/27 41/74/27 47/75/27
f 11/76/27 10/77/27 42/78/27 43/79/27
f 13/80/27 12/81/27 44/82/27 45/83/27
f 16/84/27 14/85/28 46/86/28 48/87/27
f 9/73/27 16/84/27 48/87/27 41/74/27
f 10/77/27 15/72/27 47/75/27 42/78/27
f 12/81/27 11/76/27 43/79/27 44/82/27
f 14/85/28 13/80/27 45/83/27 46/86/28
f 41/74/9 48/87/11 56/88/11 49/89/9
f 42/78/3 47/75/7 55/90/7 50/91/3
f 44/82/17 43/79/4 51/92/4 52/93/17
f 46/86/13 45/83/15 53/94/15 54/95/13
f 47/75/7 41/74/9 49/89/9 55/90/7
f 43/79/4 42/78/3 50/91/3 51/92/4
f 45/83/15 44/82/17 52/93/17 53/94/15
f 48/87/11 46/86/13 54/95/13 56/88/11
f 54/95/27 53/94/27 52/93/27 51/92/27 50/91/27 55/90/27 49/89/27 56/88/27
f 57/96/4 58/97/4 59/98/4 60/99/4 61/100/4 62/101/4 63/102/4 64/103/4
f 87/104/29 70/105/30 72/106/31 81/107/32
f 86/108/33 69/109/34 70/105/30 87/104/29
f 85/110/35 68/111/36 69/109/34 86/108/33
f 84/112/37 67/113/38 68/111/36 85/110/35
f 83/114/39 66/115/40 67/113/38 84/112/37
f 88/116/41 71/117/42 66/115/40 83/114/39
f 82/118/43 65/119/44 71/117/42 88/116/41
f 81/120/32 72/121/31 65/119/44 82/118/43
f 57/122/31 80/123/31 73/124/44 58/125/44
f 58/125/44 73/124/44 79/126/42 59/127/42
f 59/127/42 79/126/42 74/128/40 60/129/40
f 60/129/40 74/128/40 75/130/38 61/131/38
f 61/131/38 75/130/38 76/132/36 62/133/36
f 62/133/36 76/132/36 77/134/34 63/135/34
f 63/135/34 77/134/34 78/136/30 64/137/30
f 64/137/30 78/136/30 80/138/31 57/139/31
f 96/140/45 81/141/32 82/142/43 89/143/46
f 89/143/46 82/142/43 88/144/41 95/145/47
f 95/145/47 88/144/41 83/146/39 90/147/48
f 90/147/48 83/146/39 84/148/37 91/149/49
f 91/149/49 84/148/37 85/150/35 92/151/50
f 92/151/50 85/150/35 86/152/33 93/153/51
f 93/153/51 86/152/33 87/154/29 94/155/52
f 94/155/52 87/154/29 81/156/32 96/157/45
f 78/136/30 94/158/52 96/159/45 80/138/31
f 77/134/34 93/160/51 94/158/52 78/136/30
f 76/132/36 92/161/50 93/160/51 77/134/34
f 75/130/38 91/162/49 92/161/50 76/132/36
f 74/128/40 90/163/48 91/162/49 75/130/38
f 79/126/42 95/164/47 90/163/48 74/128/40
f 73/124/44 89/165/46 95/164/47 79/126/42
f 80/123/31 96/166/45 89/165/46 73/124/44
f 71/167/11 65/168/11 97/169/11 103/170/11
f 67/171/11 66/172/11 98/173/11 99/174/11
f 69/175/11 68/176/11 100/177/11 101/178/11
f 72/179/11 70/180/11 102/181/11 104/182/11
f 65/168/11 72/179/11 104/182/11 97/169/11
f 66/172/11 71/167/11 103/170/11 98/173/11
f 68/176/11 67/171/11 99/174/11 100/177/11
f 70/180/11 69/175/11 101/178/11 102/181/11
f 97/169/36 104/182/38 112/183/38 105/184/36
f 98/173/30 103/170/34 111/185/34 106/186/30
f 100/177/44 99/174/31 107/187/31 108/188/44
f 102/181/40 101/178/42 109/189/42 110/190/40
f 103/170/34 97/169/36 105/184/36 111/185/34
f 99/174/31 98/173/30 106/186/30 107/187/31
f 101/178/42 100/177/44 108/188/44 109/189/42
f 104/182/38 102/181/40 110/190/40 112/183/38
f 110/190/11 109/189/11 108/188/11 107/187/11 106/186/11 111/185/11 105/184/11 112/183/11
f 113/191/53 114/192/53 115/193/53 116/194/53 117/195/53 118/196/53 119/197/53 120/198/53
f 143/199/54 126/200/55 128/201/4 137/202/56
f 142/203/57 125/204/58 126/200/55 143/199/54
f 141/205/59 124/206/60 125/204/58 142/203/57
f 140/207/61 123/208/11 124/206/60 141/205/59
f 139/209/62 122/210/63 123/208/11 140/207/61
f 144/211/64 127/212/65 122/210/63 139/209/62
f 138/213/66 121/214/67 127/212/65 144/211/64
f 137/215/56 128/216/4 121/214/67 138/213/66
f 113/217/4 136/218/4 129/219/67 114/220/67
f 114/220/67 129/219/67 135/221/65 115/222/65
f 115/222/65 135/221/65 130/223/63 116/224/63
f 116/224/63 130/223/63 131/225/11 117/226/11
f 117/226/11 131/225/11 132/227/60 118/228/60
f 118/228/60 132/227/60 133/229/58 119/230/58
f 119/230/58 133/229/58 134/231/55 120/232/55
f 120/232/55 134/231/55 136/233/4 113/234/4
f 152/235/68 137/236/56 138/237/66 145/238/69
f 145/238/69 138/237/66 144/239/64 151/240/70
f 151/240/70 144/239/64 139/241/62 146/242/71
f 146/242/71 139/241/62 140/243/61 147/244/72
f 147/244/72 140/243/61 141/245/59 148/246/73
f 148/246/73 141/245/59 142/247/57 149/248/74
f 149/248/74 142/247/57 143/249/54 150/250/75
f 150/250/75 143/249/54 137/251/56 152/252/68
f 134/231/55 150/253/75 152/254/68 136/233/4
f 133/229/58 149/255/74 150/253/75 134/231/55
f 132/227/60 148/256/73 149/255/74 133/229/58
f 131/225/11 147/257/72 148/256/73 132/227/60
f 130/223/63 146/258/71 147/257/72 131/225/11
f 135/221/65 151/259/70 146/258/71 130/223/63
f 129/219/67 145/260/69 151/259/70 135/221/65
f 136/218/4 152/261/68 145/260/69 129/219/67
f 127/262/76 121/263/76 153/264/76 159/265/76
f 123/266/76 122/267/76 154/268/76 155/269/76
f 125/270/76 124/271/76 156/272/76 157/273/76
f 128/274/76 126/275/76 158/276/76 160/277/76
f 121/263/76 128/274/76 160/277/76 153/264/76
f 122/267/76 127/262/76 159/265/76 154/268/76
f 124/271/76 123/266/76 155/269/76 156/272/76
f 126/275/76 125/270/76 157/273/76 158/276/76
f 153/264/60 160/277/11 168/278/11 161/279/60
f 154/268/55 159/265/58 167/280/58 162/281/55
f 156/272/67 155/269/4 163/282/4 164/283/67
f 158/276/63 157/273/65 165/284/65 166/285/63
f 159/265/58 153/264/60 161/279/60 167/280/58
f 155/269/4 154/268/55 162/281/55 163/282/4
f 157/273/65 156/272/67 164/283/67 165/284/65
f 160/277/11 158/276/63 166/285/63 168/278/11
f 166/285/76 165/284/76 164/283/76 163/282/76 162/281/76 167/280/76 161/279/76 168/278/76
